# xmcd
# 
# Track frame offsets:
#     150
#     19520
#     39950
# 
# Disc length: 789
# 
# Revision: 1
# Processed by: cddbd v1.5.2PL0 Copyright (c) Steve Scherf et al.
# Submitted via: fre:ac v1.0.31
# 
DISCID=14031303
DTITLE=Lastier - Sky
DYEAR=1998
DGENRE=Rock
TTITLE0=Sky
TTITLE1=FOLLOW THE WIND
TTITLE2=Sky (No Vocal Edition)
EXTD=YEAR: 1998
EXTT0=
EXTT1=
EXTT2=
PLAYORDER=
